<?xml version="1.0" standalone="no"?>
<!DOCTYPE svg PUBLIC "-//W3C//DTD SVG 20010904//EN"
 "http://www.w3.org/TR/2001/REC-SVG-20010904/DTD/svg10.dtd">
<svg version="1.0" xmlns="http://www.w3.org/2000/svg"
 width="612.000000pt" height="408.000000pt" viewBox="0 0 612.000000 408.000000"
 preserveAspectRatio="xMidYMid meet">

<g transform="translate(0.000000,408.000000) scale(0.100000,-0.100000)"
fill="#000000" stroke="none">
<path d="M1030 3590 c-349 -3 -593 -6 -542 -8 88 -2 92 -3 93 -24 2 -114 -2
-1484 -7 -2190 l-7 -887 -61 -5 c-118 -11 -120 -13 -21 -16 92 -2 97 -3 55
-12 -25 -6 -63 -16 -85 -24 -39 -14 -38 -14 40 -8 99 7 103 8 140 24 17 7 62
14 100 16 41 2 58 0 41 -4 -50 -12 -44 -32 11 -33 39 -1 43 -3 23 -9 -25 -8
-25 -8 -2 -9 40 -2 15 -18 -40 -27 l-53 -8 60 -6 c42 -4 79 -1 123 11 56 16
62 16 62 2 0 -9 -8 -22 -17 -29 -17 -13 -17 -13 1 -14 30 0 146 23 146 29 0 3
-5 13 -10 21 -9 13 -11 13 -19 0 -6 -8 -12 -12 -15 -10 -9 9 19 36 56 53 20
10 40 22 43 27 10 16 62 12 69 -6 3 -8 11 -12 17 -8 14 8 4 -12 -19 -39 -19
-22 -8 -34 15 -16 12 9 10 4 -5 -15 -12 -16 -22 -37 -22 -47 0 -25 33 -24
-537 -27 -302 -2 -342 -4 -337 -17 6 -14 52 -15 368 -14 517 3 506 3 506 -21
0 -21 15 -27 25 -9 5 6 11 4 19 -7 16 -22 73 -11 81 17 4 10 16 21 28 24 35 7
2248 21 3970 24 331 1 447 4 447 13 0 8 -322 9 -1307 4 -1551 -8 -3113 -10
-3118 -4 -3 2 0 20 6 39 5 19 12 42 14 52 10 43 17 55 41 65 17 8 151 12 442
13 229 1 1149 3 2043 6 l1626 5 -5 324 c-5 303 -4 324 12 318 12 -5 19 0 23
16 7 27 23 8 23 -30 0 -18 3 -21 9 -11 7 11 11 10 20 -5 9 -17 10 -17 11 6 1
42 16 56 24 24 8 -32 22 -44 49 -44 11 0 17 8 17 21 0 11 5 17 10 14 6 -3 10
-14 10 -25 0 -10 6 -20 14 -23 18 -7 26 61 26 231 0 106 3 134 14 138 8 3 86
-6 173 -20 87 -14 162 -26 166 -26 4 0 7 24 7 53 l0 53 -67 3 c-107 4 -394 35
-423 45 -8 2 -61 7 -117 11 -56 3 -109 8 -116 11 -8 3 -17 -2 -21 -11 -3 -9
-11 -13 -17 -9 -29 18 -246 -6 -260 -28 -4 -6 -39 -13 -78 -16 -39 -2 -68 -9
-65 -13 7 -11 1 -11 -30 1 -26 9 -47 -3 -24 -14 7 -3 2 -3 -12 0 -33 8 -48 21
-66 57 -14 26 -14 31 0 46 9 10 16 23 16 30 0 14 -26 8 -83 -21 -22 -11 -41
-17 -44 -15 -2 3 -19 1 -36 -4 -24 -7 -41 -4 -74 12 -24 11 -43 25 -43 30 0 6
-4 8 -9 4 -5 -3 -12 -1 -16 5 -11 18 48 66 109 89 52 19 69 21 140 14 80 -8
81 -8 86 -38 5 -26 7 -27 13 -10 13 38 44 80 58 79 8 -1 22 -5 32 -9 15 -6 18
-4 15 11 -3 17 3 19 68 16 45 -3 74 0 78 7 5 7 -3 11 -21 11 -27 0 -27 1 12
25 28 17 34 24 21 25 -24 0 -147 60 -206 100 -25 16 -50 30 -56 30 -12 0 -54
46 -54 60 0 6 -4 10 -9 10 -5 0 -7 9 -4 20 3 11 0 20 -6 20 -6 0 -11 7 -11 16
0 11 -6 14 -21 9 -15 -5 -22 -2 -26 14 -6 22 -14 26 -27 14 -9 -10 -133 -4
-163 8 -14 5 -25 4 -29 -2 -3 -5 -37 -9 -74 -8 -62 2 -97 11 -152 40 -10 5
-23 9 -29 9 -14 0 -39 25 -39 40 0 6 -4 8 -10 5 -16 -10 -11 -67 8 -88 17 -19
16 -20 -7 -7 -13 6 -36 9 -52 6 -16 -3 -53 -1 -81 5 -29 5 -75 12 -102 15 -27
3 -54 8 -60 11 -5 4 -23 8 -39 10 -26 3 -66 36 -67 55 0 16 59 36 139 47 99
13 283 14 431 1 58 -4 109 -6 115 -2 5 3 25 7 45 9 19 2 79 8 134 13 54 6 102
10 107 10 5 0 9 4 9 9 0 5 -16 5 -37 0 -51 -12 -53 -11 -53 6 0 11 11 15 40
15 46 0 52 14 13 28 l-28 10 25 10 c14 6 20 11 14 11 -6 1 -16 12 -22 25 -10
21 -16 24 -56 21 -50 -3 -70 11 -60 41 5 15 4 16 -5 4 -12 -18 -15 -15 -27 35
-9 39 -10 40 -46 37 -33 -3 -38 0 -44 23 -3 14 -14 30 -23 35 -13 6 -16 18
-13 39 4 26 1 30 -23 33 -16 2 -31 10 -35 18 -4 8 -12 25 -18 37 -7 13 -12 34
-12 47 0 24 -51 86 -71 86 -14 0 -11 12 8 25 11 8 14 18 8 31 -4 10 -7 23 -6
27 1 5 -4 24 -11 43 -9 25 -18 34 -34 34 -20 0 -22 7 -29 76 -5 53 -3 79 4 84
15 9 3 40 -15 40 -19 0 -38 50 -24 64 5 5 10 20 10 32 0 12 4 24 9 26 5 2 -2
27 -16 57 -13 29 -25 65 -26 80 -2 21 3 27 26 29 15 2 27 7 27 12 0 4 33 8 73
9 39 0 115 5 167 10 52 5 293 8 535 7 l440 -1 0 -305 c-1 -168 -3 -503 -5
-745 -4 -386 -3 -440 10 -440 13 0 16 85 22 680 3 374 9 717 12 763 l6 84
-1928 -4 c-1060 -2 -2213 -5 -2562 -8z m3483 -1037 c-7 -2 -19 -2 -25 0 -7 3
-2 5 12 5 14 0 19 -2 13 -5z m212 -152 c-3 -6 -11 -11 -16 -11 -5 0 -4 6 3 14
14 16 24 13 13 -3z m-59 -89 c-10 -2 -22 0 -28 6 -6 6 0 7 19 4 21 -5 23 -7 9
-10z m90 -229 c36 -13 59 -108 31 -131 -7 -6 -42 -14 -77 -17 -57 -6 -71 -3
-112 18 -35 17 -48 21 -48 11 0 -41 -111 -58 -151 -23 -16 14 -26 16 -40 8
-11 -5 -17 -14 -14 -20 4 -5 0 -9 -8 -9 -41 0 -70 95 -38 124 15 13 83 35 161
50 31 6 275 -3 296 -11z m89 -203 c22 -11 46 -19 52 -20 7 0 20 -14 29 -31 15
-30 15 -33 -4 -51 -15 -16 -36 -21 -88 -23 -38 -2 -96 -8 -129 -14 -33 -6 -80
-11 -105 -11 -26 0 -50 -4 -56 -10 -6 -6 -24 -2 -51 10 -34 15 -44 26 -54 59
-15 51 -5 65 64 85 70 20 96 23 207 24 75 1 103 -3 135 -18z m-80 -398 c-5
-14 -7 -14 -15 -2 -13 21 -12 48 3 64 10 11 13 9 15 -16 2 -16 1 -37 -3 -46z
m-3908 -1028 c-3 -3 -12 -4 -19 -1 -8 3 -5 6 6 6 11 1 17 -2 13 -5z m123 -4
c-17 -9 -96 -10 -80 0 5 3 29 6 52 7 28 1 38 -1 28 -7z m-187 -17 c-7 -2 -19
-2 -25 0 -7 3 -2 5 12 5 14 0 19 -2 13 -5z m84 1 c-3 -3 -12 -4 -19 -1 -8 3
-5 6 6 6 11 1 17 -2 13 -5z m33 -8 c0 -2 -7 -7 -16 -10 -8 -3 -12 -2 -9 4 6
10 25 14 25 6z m20 -25 c0 -9 -52 -22 -59 -15 -4 3 37 22 52 23 4 1 7 -3 7 -8z"/>
<path d="M4738 1963 c6 -2 18 -2 25 0 6 3 1 5 -13 5 -14 0 -19 -2 -12 -5z"/>
<path d="M4865 1790 c-4 -6 3 -10 14 -10 25 0 27 6 6 13 -8 4 -17 2 -20 -3z"/>
<path d="M4720 2534 c0 -8 5 -12 10 -9 6 4 8 11 5 16 -9 14 -15 11 -15 -7z"/>
<path d="M4830 2316 c0 -2 13 -6 29 -8 17 -2 28 -1 25 4 -5 8 -54 12 -54 4z"/>
<path d="M5070 2240 c8 -5 20 -10 25 -10 6 0 3 5 -5 10 -8 5 -19 10 -25 10 -5
0 -3 -5 5 -10z"/>
<path d="M5115 2220 c3 -4 14 -10 25 -13 11 -3 18 -2 15 3 -3 4 -14 10 -25 13
-11 3 -18 2 -15 -3z"/>
<path d="M5314 2125 c11 -8 24 -15 30 -15 5 0 1 7 -10 15 -10 8 -23 14 -29 14
-5 0 -1 -6 9 -14z"/>
</g>
</svg>
